HIERARCHY
ROOT Hips
{
	OFFSET 0.000000 0.000000 0.000000
	CHANNELS 6 Xposition Yposition Zposition Zrotation Yrotation Xrotation 
	JOINT LHipJoint
	{
		OFFSET 0.000000 0.000000 0.000000
		CHANNELS 3 Zrotation Yrotation Xrotation
		JOINT LeftUpLeg
		{
			OFFSET 1.363060 -1.794630 0.839290
			CHANNELS 3 Zrotation Yrotation Xrotation
			JOINT LeftLeg
			{
				OFFSET 2.448110 -6.726130 0.000000
				CHANNELS 3 Zrotation Yrotation Xrotation
				JOINT LeftFoot
				{
					OFFSET 2.562200 -7.039590 0.000000
					CHANNELS 3 Zrotation Yrotation Xrotation
					JOINT LeftToeBase
					{
						OFFSET 0.157640 -0.433110 2.322550
						CHANNELS 3 Zrotation Yrotation Xrotation
						End Site
						{
							OFFSET 0.000000 0.000000 0.000000
						}
					}
				}
			}
		}
	}
	JOINT RHipJoint
	{
		OFFSET 0.000000 0.000000 0.000000
		CHANNELS 3 Zrotation Yrotation Xrotation
		JOINT RightUpLeg
		{
			OFFSET -1.305520 -1.794630 0.839290
			CHANNELS 3 Zrotation Yrotation Xrotation
			JOINT RightLeg
			{
				OFFSET -2.542530 -6.985550 0.000000
				CHANNELS 3 Zrotation Yrotation Xrotation
				JOINT RightFoot
				{
					OFFSET -2.568260 -7.056230 0.000000
					CHANNELS 3 Zrotation Yrotation Xrotation
					JOINT RightToeBase
					{
						OFFSET -0.164730 -0.452590 2.363150
						CHANNELS 3 Zrotation Yrotation Xrotation
						End Site
						{
							OFFSET 0.000000 0.000000 0.000000
						}
					}
				}
			}
		}
	}
	JOINT LowerBack
	{
		OFFSET 0.000000 0.000000 0.000000
		CHANNELS 3 Zrotation Yrotation Xrotation
		JOINT Spine
		{
			OFFSET 0.028270 2.035590 -0.193380
			CHANNELS 3 Zrotation Yrotation Xrotation
			JOINT Spine1
			{
				OFFSET 0.056720 2.048850 -0.042750
				CHANNELS 3 Zrotation Yrotation Xrotation
				JOINT Neck
				{
					OFFSET 0.000000 0.000000 0.000000
					CHANNELS 3 Zrotation Yrotation Xrotation
					JOINT Neck1
					{
						OFFSET -0.054170 1.746240 0.172020
						CHANNELS 3 Zrotation Yrotation Xrotation
						JOINT Head
						{
							OFFSET 0.104070 1.761360 -0.123970
							CHANNELS 3 Zrotation Yrotation Xrotation
							End Site
							{
								OFFSET 0.000000 0.000000 0.000000
							}
						}
					}
				}
				JOINT LeftShoulder
				{
					OFFSET 0.000000 0.000000 0.000000
					CHANNELS 3 Zrotation Yrotation Xrotation
					JOINT LeftArm
					{
						OFFSET 3.362410 1.200890 -0.311210
						CHANNELS 3 Zrotation Yrotation Xrotation
						JOINT LeftForeArm
						{
							OFFSET 4.983000 -0.000000 -0.000000
							CHANNELS 3 Zrotation Yrotation Xrotation
							JOINT LeftHand
							{
								OFFSET 3.483560 -0.000000 -0.000000
								CHANNELS 3 Zrotation Yrotation Xrotation
								JOINT LeftFingerBase
								{
									OFFSET 0.000000 0.000000 0.000000
									CHANNELS 3 Zrotation Yrotation Xrotation
									JOINT LeftHandIndex1
									{
										OFFSET 0.715260 -0.000000 -0.000000
										CHANNELS 3 Zrotation Yrotation Xrotation
										End Site
										{
											OFFSET 0.000000 0.000000 0.000000
										}
									}
								}
								JOINT LThumb
								{
									OFFSET 0.000000 0.000000 0.000000
									CHANNELS 3 Zrotation Yrotation Xrotation
									End Site
									{
										OFFSET 0.000000 0.000000 0.000000
									}
								}
							}
						}
					}
				}
				JOINT RightShoulder
				{
					OFFSET 0.000000 0.000000 0.000000
					CHANNELS 3 Zrotation Yrotation Xrotation
					JOINT RightArm
					{
						OFFSET -3.136600 1.374050 -0.404650
						CHANNELS 3 Zrotation Yrotation Xrotation
						JOINT RightForeArm
						{
							OFFSET -5.241900 -0.000000 -0.000000
							CHANNELS 3 Zrotation Yrotation Xrotation
							JOINT RightHand
							{
								OFFSET -3.444170 -0.000000 -0.000000
								CHANNELS 3 Zrotation Yrotation Xrotation
								JOINT RightFingerBase
								{
									OFFSET 0.000000 0.000000 0.000000
									CHANNELS 3 Zrotation Yrotation Xrotation
									JOINT RightHandIndex1
									{
										OFFSET -0.622530 -0.000000 -0.000000
										CHANNELS 3 Zrotation Yrotation Xrotation
										End Site
										{
											OFFSET 0.000000 0.000000 0.000000
										}
									}
								}
								JOINT RThumb
								{
									OFFSET 0.000000 0.000000 0.000000
									CHANNELS 3 Zrotation Yrotation Xrotation
									End Site
									{
										OFFSET 0.000000 0.000000 0.000000
									}
								}
							}
						}
					}
				}
			}
		}
	}
}
MOTION
Frames: 7
Frame Time: 0.008333
10.124535 14.744309 -17.083934 174.870578 38.750794 175.563217 -4.768637 17.567907 10.764212 -4.120896 -10.877843 -41.701335 8.506624 17.898737 88.586674 -13.607745 3.019838 10.169281 0.976232 4.375069 -3.791785 -6.929313 -20.817632 12.902543 29.099884 32.964766 -47.582911 -12.453983 -3.989876 51.685733 -12.522111 -4.971587 -15.032684 -8.272561 -17.783773 19.201065 3.904648 3.435146 -7.548032 1.611926 -0.613494 -0.597456 0.182464 -3.298261 20.635325 -2.630750 0.308825 -20.496016 2.463713 0.551412 13.397508 -1.677155 0.360755 7.960199 8.790236 0.714803 1.985715 -84.550139 -37.351986 20.487927 14.598986 -66.294418 10.587046 -6.052224 -30.262604 6.099694 -0.000000 0.000000 -0.000000 0.000000 0.000000 -0.000000 -0.000000 0.000000 -0.000000 -5.270638 -6.735106 4.268418 66.374630 14.052823 2.466653 18.330169 48.925561 19.675029 15.692257 8.808747 2.746843 0.000000 -0.000000 0.000000 -0.000000 0.000000 -0.000000 -0.000000 -0.000000 0.000000 
10.188964 14.711952 -17.296246 174.946064 39.074462 175.746979 -4.347365 18.501951 10.746318 -4.350932 -12.856666 -44.950118 9.513093 17.257002 89.721415 -12.467687 4.089051 9.757270 2.079668 3.697761 -5.086597 -8.736161 -21.519209 13.300860 32.156833 33.823094 -46.732666 -15.275832 -5.625556 48.374089 -12.693206 -4.581118 -19.260973 -8.188695 -16.623332 18.723514 4.327692 3.292857 -7.512743 1.564729 -0.789614 -0.869419 0.128510 -3.663482 20.075517 -2.595399 0.323714 -19.874982 2.534429 0.520788 13.466897 -1.323340 0.329566 7.303761 9.497827 1.452252 1.877057 -85.575680 -35.633605 19.559207 11.760281 -64.474161 12.138138 -7.823746 -30.433169 6.660339 -0.000000 0.000000 0.000000 -0.000000 0.000000 -0.000000 -0.000000 0.000000 0.000000 -6.120513 -6.131519 4.531216 66.091616 16.245765 2.894793 18.329695 48.272932 21.794430 10.725132 11.124621 2.812285 0.000000 -0.000000 0.000000 0.000000 0.000000 0.000000 0.000000 0.000000 0.000000 
10.254655 14.701411 -17.500000 174.556273 39.128377 175.223772 -4.431186 19.312894 11.195971 -4.621877 -14.605380 -47.989039 10.433443 16.081957 89.699816 -11.680261 2.959245 8.697555 1.525264 3.350263 -4.054611 -8.436994 -21.940525 13.040028 31.742005 33.152496 -46.543609 -15.676954 -6.891617 51.521131 -12.505581 -2.570734 -19.350699 -6.724904 -18.295608 17.202580 4.377064 2.987166 -7.643455 1.526659 -1.008074 -0.752332 0.274149 -4.234464 19.553922 -2.916426 0.259190 -19.143450 2.501465 0.485378 13.785145 -1.274618 0.101857 7.578742 8.978586 1.906573 1.887873 -85.221811 -33.568076 18.597077 10.614056 -64.027510 12.870335 -8.925774 -30.504880 7.005571 -0.000000 0.000000 -0.000000 -0.000000 0.000000 0.000000 -0.000000 0.000000 -0.000000 -6.832443 -5.357336 5.141391 65.857452 18.177870 3.028750 18.495592 49.140214 22.091470 11.480624 11.430659 2.977132 0.000000 -0.000000 0.000000 -0.000000 0.000000 -0.000000 0.000000 0.000000 0.000000 
10.305931 14.676366 -17.704655 174.148342 39.379293 174.568789 -4.545070 20.080093 11.559759 -4.740072 -16.290569 -50.723368 11.460526 15.099348 89.406142 -11.397172 2.202328 7.905357 2.536003 3.341312 -5.572252 -8.507223 -22.062966 12.507316 31.779639 32.336262 -45.751555 -15.618594 -7.828079 54.679306 -12.718439 -1.433868 -19.125917 -6.030524 -17.610848 16.020884 4.653727 2.665846 -7.407009 1.401310 -1.060629 -0.768350 -0.143810 -4.332223 19.448033 -2.722078 0.153965 -18.894561 2.497869 0.339491 14.060212 -1.058773 -0.222219 7.496777 9.181161 2.454810 1.842904 -85.090653 -31.974951 18.249785 10.203568 -63.489495 13.306734 -9.668298 -30.952557 7.336389 0.000000 0.000000 -0.000000 -0.000000 0.000000 -0.000000 0.000000 0.000000 -0.000000 -7.004514 -5.014561 5.521520 65.660872 20.417011 3.344230 18.491738 49.971837 22.914248 11.160868 12.161530 3.116028 0.000000 -0.000000 0.000000 0.000000 0.000000 -0.000000 -0.000000 -0.000000 0.000000 
10.352492 14.660180 -17.899399 173.693837 39.627135 173.830379 -4.996144 20.306952 11.656155 -4.599688 -17.271961 -53.085545 12.391482 14.112152 88.647326 -11.888039 1.919066 7.526676 4.394838 2.506634 -7.857436 -8.310195 -21.718938 11.888976 31.453342 30.985925 -45.140207 -15.250981 -8.485624 57.706601 -12.818647 -0.703766 -18.607816 -3.735552 -16.365887 12.428639 4.877239 2.337412 -7.023201 1.294292 -1.142446 -0.784631 -0.446923 -4.328054 19.036660 -2.602308 -0.015871 -18.388545 2.441518 0.133453 14.341216 -0.406316 -0.921500 8.069631 9.189825 2.600656 1.545176 -84.799771 -29.940617 18.655194 11.689007 -62.722636 12.681637 -9.406331 -31.426599 7.370412 0.000000 0.000000 0.000000 -0.000000 -0.000000 0.000000 -0.000000 -0.000000 0.000000 -7.066536 -4.536195 5.893323 65.339871 22.432474 3.567629 18.279727 50.713101 23.582119 9.736241 12.531435 3.018975 0.000000 -0.000000 0.000000 0.000000 -0.000000 0.000000 0.000000 -0.000000 0.000000 
10.395390 14.645766 -18.106156 173.077377 40.190700 173.119749 -5.691385 20.518959 11.903228 -4.308752 -17.907763 -55.682747 12.172794 13.037816 87.697051 -10.915769 2.020279 6.956552 5.348497 2.256576 -9.106352 -8.341658 -21.225064 11.266903 31.158769 29.888457 -44.439303 -14.777167 -9.041832 60.333975 -13.161796 -0.260712 -17.880738 -2.244507 -15.273290 9.985455 5.210419 2.067215 -6.822874 1.106725 -1.043098 -0.768482 -1.064231 -4.016854 18.699050 -2.260698 -0.153305 -17.903605 2.417407 -0.077498 14.575504 -0.351753 -1.401102 8.107100 9.490351 2.650460 1.200883 -84.529689 -27.861747 19.145442 13.172476 -62.120232 12.234382 -9.032412 -32.656835 7.546825 0.000000 0.000000 0.000000 0.000000 0.000000 -0.000000 0.000000 0.000000 0.000000 -6.864348 -4.195648 6.311428 65.041829 24.483748 3.766595 18.043115 51.432901 25.799546 6.956941 15.048143 3.173180 0.000000 -0.000000 0.000000 -0.000000 -0.000000 -0.000000 -0.000000 -0.000000 0.000000 
10.426652 14.646096 -18.311411 172.212220 41.240316 172.534051 -6.248268 20.879296 12.181318 -4.474131 -18.431396 -58.109208 12.428207 11.769738 85.932695 -10.686034 -0.908470 5.665231 1.685234 3.280510 -4.257940 -8.551304 -20.974502 10.948233 30.624401 29.914134 -44.187208 -14.741144 -8.755820 61.499080 -13.423761 -0.308957 -18.186998 -0.154068 -13.474233 6.434200 5.447308 1.866599 -6.697563 0.843838 -0.727175 -0.744223 -1.694243 -3.511303 18.312066 -2.020429 -0.231733 -17.468842 2.597237 -0.238303 14.378006 0.157802 -1.854821 8.005202 9.731538 2.675139 0.762766 -83.862363 -25.493238 20.118039 16.140704 -63.153298 10.201909 -8.621190 -32.232517 7.316118 0.000000 -0.000000 0.000000 -0.000000 -0.000000 -0.000000 0.000000 -0.000000 0.000000 -6.900356 -4.002724 7.071630 65.184807 26.646014 4.192000 17.696572 52.870467 22.362104 13.346923 10.509450 2.962520 0.000000 -0.000000 0.000000 0.000000 0.000000 0.000000 0.000000 0.000000 -0.000000 
